<?xml version="1.0" encoding="UTF-8"?>
<svg width="32px" height="32px" viewBox="0 0 32 32" version="1.1" xmlns="http://www.w3.org/2000/svg" xmlns:xlink="http://www.w3.org/1999/xlink">
    <!-- Generator: Sketch 47.1 (45422) - http://www.bohemiancoding.com/sketch -->
    <title>Group 9</title>
    <desc>Created with Sketch.</desc>
    <defs>
        <circle id="path-1" cx="16" cy="16" r="16"></circle>
    </defs>
    <g id="Main-Screens" stroke="none" stroke-width="1" fill="none" fill-rule="evenodd">
        <g id="Plan-BTG" transform="translate(-826.000000, -400.000000)">
            <g id="plan" transform="translate(160.000000, 88.000000)">
                <g transform="translate(80.000000, 80.000000)" id="Group-8">
                    <g transform="translate(488.000000, 232.000000)">
                        <g id="Group-9" transform="translate(98.000000, 0.000000)">
                            <g id="Group-2">
                                <g id="Oval-2">
                                    <use fill="#256CEE" fill-rule="evenodd" xlink:href="#path-1"></use>
                                    <circle stroke="#256CEE" stroke-width="1" cx="16" cy="16" r="15.5"></circle>
                                </g>
                                <path d="M22.9764615,11.0526284 C22.9760997,11.0529929 13.5467821,20.5707134 13.5467821,20.5707134 L9.31006543,16.3133997 C9.23915198,16.2419585 9.12409853,16.2419585 9.05318509,16.3133997 C8.98227164,16.3848409 8.98227164,16.5007506 9.05318509,16.5721919 L13.3948247,20.9461443 C13.4650145,21.0175855 13.5797062,21.01795 13.6506196,20.9472378 C13.6509814,20.9468733 23.2322565,11.3125141 23.2322565,11.3125141 C23.3031699,11.2418018 23.3035317,11.1262566 23.2333419,11.0548154 C23.1620666,10.9822806 23.047375,10.9819161 22.9764615,11.0526284 Z" id="Fill-1" stroke="#FFFFFF" stroke-width="1.5" fill="#FFFFFF"></path>
                            </g>
                        </g>
                    </g>
                </g>
            </g>
        </g>
    </g>
</svg>